HIERARCHY
ROOT Hips
{
	OFFSET 0.000000 88.474243 0.000000
	CHANNELS 6 Xposition Yposition Zposition Zrotation Yrotation Xrotation 
	JOINT Hips_Spine
	{
		OFFSET 0.000000 0.000000 0.000000
		CHANNELS 3 Zrotation Yrotation Xrotation
		JOINT Spine
		{
			OFFSET 0.005100 8.711998 -0.691000
			CHANNELS 3 Zrotation Yrotation Xrotation
			JOINT Spine1
			{
				OFFSET -0.009200 8.660301 -1.275000
				CHANNELS 3 Zrotation Yrotation Xrotation
				JOINT Spine2
				{
					OFFSET 0.006300 9.852501 -1.857000
					CHANNELS 3 Zrotation Yrotation Xrotation
					JOINT Spine2_Neck
					{
						OFFSET 0.000000 0.000000 0.000000
						CHANNELS 3 Zrotation Yrotation Xrotation
						JOINT Neck
						{
							OFFSET 0.016300 11.420799 -0.263300
							CHANNELS 3 Zrotation Yrotation Xrotation
							End Site #name: Head
							{
								OFFSET -0.019200 9.262405 2.362500
							}
						}
					}
					JOINT Spine2_LeftShoulder
					{
						OFFSET 0.000000 0.000000 0.000000
						CHANNELS 3 Zrotation Yrotation Xrotation
						JOINT LeftShoulder
						{
							OFFSET 5.616900 6.732201 -0.345700
							CHANNELS 3 Zrotation Yrotation Xrotation
							JOINT LeftArm
							{
								OFFSET 10.664888 -0.183372 -2.440700
								CHANNELS 3 Zrotation Yrotation Xrotation
								JOINT LeftForeArm
								{
									OFFSET 27.459126 0.000000 0.000000
									CHANNELS 3 Zrotation Yrotation Xrotation
									End Site #name: LeftHand
									{
										OFFSET 21.306858 0.000000 0.000000
									}
								}
							}
						}
					}
					JOINT Spine2_RightShoulder
					{
						OFFSET 0.000000 0.000000 0.000000
						CHANNELS 3 Zrotation Yrotation Xrotation
						JOINT RightShoulder
						{
							OFFSET -5.580300 6.737503 -0.344400
							CHANNELS 3 Zrotation Yrotation Xrotation
							JOINT RightArm
							{
								OFFSET -10.679335 -0.188484 -2.383900
								CHANNELS 3 Zrotation Yrotation Xrotation
								JOINT RightForeArm
								{
									OFFSET -27.503529 0.000000 0.000000
									CHANNELS 3 Zrotation Yrotation Xrotation
									End Site #name: RightHand
									{
										OFFSET -21.306808 0.000000 0.000000
									}
								}
							}
						}
					}
				}
			}
		}
	}
	JOINT Hips_LeftUpLeg
	{
		OFFSET 0.000000 0.000000 0.000000
		CHANNELS 3 Zrotation Yrotation Xrotation
		JOINT LeftUpLeg
		{
			OFFSET 6.857700 -6.739601 0.312100
			CHANNELS 3 Zrotation Yrotation Xrotation
			JOINT LeftLeg
			{
				OFFSET -0.367590 -34.731552 -4.572400
				CHANNELS 3 Zrotation Yrotation Xrotation
				End Site #name: LeftFoot
				{
					OFFSET 0.367590 -34.656704 -6.067400
				}
			}
		}
	}
	JOINT Hips_RightUpLeg
	{
		OFFSET 0.000000 0.000000 0.000000
		CHANNELS 3 Zrotation Yrotation Xrotation
		JOINT RightUpLeg
		{
			OFFSET -6.876100 -6.733299 0.301000
			CHANNELS 3 Zrotation Yrotation Xrotation
			JOINT RightLeg
			{
				OFFSET 0.347353 -34.795158 -4.515900
				CHANNELS 3 Zrotation Yrotation Xrotation
				End Site #name: RightFoot
				{
					OFFSET -0.347353 -34.589367 -6.070300
				}
			}
		}
	}
}
MOTION
Frames: 15
Frame Time: 0.041667
0.160583 0.057596 0.014288 -0.165562 22.001132 -6.633197 -0.000000 0.000000 0.000000 -2.169380 0.226184 2.721906 -1.118862 -0.419685 1.318530 0.000000 0.000000 0.000000 -1.257731 -0.475176 -0.452268 3.028748 -0.707044 -4.157111 -0.716030 -1.114255 -1.022612 -17.813302 -9.120992 1.838377 -43.904640 -0.182171 15.136704 1.162569 -24.668000 4.742069 -1.479394 -0.285943 0.808016 15.306820 10.941519 4.159094 59.333525 -0.808964 -3.177485 -0.408473 43.314207 0.595490 0.000000 0.000000 0.000000 -6.114224 15.292466 -5.393715 1.737471 3.043634 20.902412 0.000000 0.000000 0.000000 -3.862954 4.636377 -6.903629 3.671990 0.602268 -0.201475 
0.596865 0.017310 0.171705 1.457091 25.253626 -7.050066 -0.000000 0.000000 0.000000 -4.867735 -0.836889 0.890151 -0.862247 -0.356842 0.530015 0.000000 0.000000 0.000000 -1.596179 -0.415070 -1.011058 4.489547 -1.582496 -4.190985 -1.428314 -0.625136 -1.632782 -23.091042 -5.740699 0.382993 -40.659189 0.052684 13.809970 -0.087610 -17.666699 3.040150 -1.642820 -0.269785 -0.003017 16.310415 8.283270 2.123677 60.578455 1.887731 -1.835340 -0.336087 37.136980 -0.604704 0.000000 0.000000 -0.000000 -8.201051 13.677041 -3.759708 -0.242651 4.042609 20.395312 0.000000 0.000000 0.000000 -7.454877 5.013120 -6.516287 3.886876 0.307687 1.254259 
0.900369 -0.001347 0.212747 2.580133 26.730534 -6.899585 -0.000000 0.000000 0.000000 -5.653622 -0.800581 0.572335 -0.881421 -0.021321 -0.221253 0.000000 0.000000 0.000000 -1.322537 -0.556548 -1.448609 4.370260 -1.612504 -5.397460 -1.428561 -0.595105 -1.951899 -27.293842 -4.519571 0.443250 -39.403921 7.456424 8.329905 -0.478671 -19.558523 3.512239 -1.707914 -0.149658 -0.355655 15.654322 7.419636 2.122289 60.085762 4.451378 -0.167529 -0.135435 31.404000 -0.551621 0.000000 0.000000 -0.000000 -9.950317 13.029574 -2.969412 -0.859444 4.757388 19.779872 0.000000 0.000000 0.000000 -9.452995 3.983585 -7.870872 3.502362 -1.368778 4.265774 
1.240752 -0.028496 0.205614 3.131181 26.442102 -6.335631 -0.000000 0.000000 -0.000000 -6.198615 -0.691501 0.992230 -0.982658 0.049436 -0.598901 0.000000 0.000000 0.000000 -1.182927 -0.581891 -1.593096 4.522576 -2.119965 -5.254670 -1.427530 -0.489728 -2.074724 -29.757924 -4.103988 0.647823 -37.285224 8.578226 8.229341 -0.049716 -19.090272 5.083365 -1.580746 -0.116768 -0.409540 14.980572 7.038799 2.033977 60.305010 6.875263 -0.727099 0.017275 31.017249 -0.486482 0.000000 0.000000 -0.000000 -11.336380 12.618787 -2.844251 -1.047160 5.105221 18.937638 0.000000 0.000000 0.000000 -10.501081 2.880078 -9.777977 2.836444 -1.522931 7.845907 
1.644364 -0.042992 0.168100 3.441530 26.411317 -5.689166 -0.000000 0.000000 -0.000000 -6.779402 -0.473409 1.016810 -1.163392 0.087277 -0.595820 0.000000 0.000000 0.000000 -1.286251 -0.579431 -1.663159 4.454600 -2.748478 -4.512122 -1.471712 -0.483031 -2.002824 -32.390512 -3.399024 1.083962 -34.760305 7.939924 9.131493 0.620395 -16.073986 7.237589 -1.718131 -0.095262 -0.291537 14.600369 6.574944 1.942128 61.394608 7.123181 -2.058730 0.111325 30.613498 -0.507103 0.000000 0.000000 -0.000000 -12.346026 12.342817 -3.138242 -0.984995 5.395177 18.711566 0.000000 0.000000 0.000000 -11.378478 1.967980 -11.062605 2.776802 -0.300643 10.376037 
2.079972 -0.043482 0.105300 3.590150 26.605338 -5.312347 -0.000000 0.000000 -0.000000 -7.274607 -0.360885 0.821947 -1.335288 0.068216 -0.422402 0.000000 0.000000 0.000000 -1.472085 -0.683211 -1.610961 4.257124 -3.156878 -3.835130 -1.551119 -0.620067 -1.883839 -34.233912 -2.523182 1.237295 -32.879692 6.640752 10.299665 1.131646 -12.083325 8.666185 -1.883301 -0.139045 -0.159090 14.151161 6.489747 1.910474 62.320763 6.538403 -3.200630 0.215166 29.204623 -0.501799 0.000000 0.000000 -0.000000 -13.031864 12.323823 -3.504960 -0.883755 5.458855 18.987167 0.000000 0.000000 0.000000 -12.077144 1.214069 -11.535427 3.186187 1.895539 11.853867 
2.517313 -0.030677 0.026968 3.574859 26.835088 -5.191226 -0.000000 0.000000 -0.000000 -7.516602 -0.332595 0.610514 -1.438349 0.065670 -0.299573 0.000000 0.000000 0.000000 -1.636494 -0.772492 -1.484534 4.046410 -3.351081 -3.406320 -1.618715 -0.712406 -1.805268 -35.543214 -1.844442 1.291117 -31.402758 5.343033 11.797141 1.468725 -7.735560 9.251801 -2.073242 -0.169897 -0.089469 13.886713 6.433392 1.877423 63.137923 5.604490 -4.187336 0.325493 27.846189 -0.504570 0.000000 0.000000 -0.000000 -13.456014 12.301142 -3.888298 -0.782845 5.359198 19.547953 0.000000 0.000000 0.000000 -12.583484 0.543500 -11.531246 3.511636 3.820995 12.708351 
2.932813 -0.010979 -0.045877 3.449233 26.996271 -5.177646 -0.000000 0.000000 -0.000000 -7.660133 -0.224858 0.358778 -1.504771 0.089544 -0.262988 0.000000 0.000000 0.000000 -1.758589 -0.782942 -1.444075 3.814917 -3.478158 -3.137336 -1.704545 -0.679213 -1.787379 -36.639065 -1.495338 1.233804 -30.241455 4.176023 12.682995 1.518521 -4.272745 8.894290 -2.257701 -0.132537 -0.065053 13.663598 6.475755 1.860558 63.824745 4.523000 -5.228691 0.423020 26.927574 -0.511803 0.000000 0.000000 -0.000000 -13.724108 12.232577 -4.267332 -0.695047 5.119319 20.195524 0.000000 0.000000 0.000000 -12.921829 -0.148522 -11.322752 3.696901 5.249167 13.133985 
3.293210 0.015509 -0.106570 3.224597 27.195240 -5.188087 -0.000000 0.000000 -0.000000 -7.856143 -0.053899 0.166231 -1.544873 0.188279 -0.295717 0.000000 0.000000 0.000000 -1.843670 -0.717558 -1.416092 3.503267 -3.642657 -2.847056 -1.772201 -0.554506 -1.815235 -37.383677 -1.286685 1.270786 -29.450498 3.538473 12.991545 1.343083 -2.106296 8.107942 -2.391524 -0.037452 -0.087311 13.470188 6.540360 1.834157 64.345097 3.611500 -6.255322 0.502145 26.069461 -0.525476 0.000000 0.000000 -0.000000 -13.859432 12.130769 -4.684830 -0.546661 4.866847 20.915949 0.000000 0.000000 0.000000 -13.138122 -0.901910 -11.029469 3.745515 6.003045 13.212150 
3.593243 0.046329 -0.159241 2.958887 27.282464 -5.192442 -0.000000 0.000000 -0.000000 -8.138741 0.155094 0.066186 -1.572947 0.298038 -0.361742 0.000000 0.000000 0.000000 -1.906779 -0.580354 -1.433251 3.274637 -3.731357 -2.677818 -1.810366 -0.394820 -1.838490 -37.737994 -1.169315 1.409697 -29.199716 3.306159 12.856070 1.147574 -1.080989 7.396899 -2.495733 0.102169 -0.114241 13.287625 6.656685 1.822975 64.787818 3.122416 -6.735059 0.542449 25.106037 -0.499869 0.000000 0.000000 -0.000000 -13.882342 12.025738 -5.112755 -0.369926 4.681581 21.593479 0.000000 0.000000 0.000000 -13.222094 -1.596998 -10.786230 3.709113 6.370652 13.115804 
3.826814 0.080397 -0.208018 2.669496 27.279702 -5.194347 -0.000000 0.000000 -0.000000 -8.419012 0.378979 0.084840 -1.594767 0.411196 -0.442577 0.000000 0.000000 0.000000 -1.959844 -0.432067 -1.459253 3.153846 -3.782162 -2.605086 -1.832629 -0.210804 -1.854198 -37.747057 -1.144578 1.508420 -29.275027 3.209368 12.577499 0.986063 -0.938213 6.898056 -2.565264 0.295770 -0.122065 13.125992 6.777910 1.814524 64.928319 3.096335 -6.651235 0.583640 24.204236 -0.477665 0.000000 0.000000 -0.000000 -13.795673 11.910237 -5.528416 -0.199336 4.580764 22.173102 0.000000 0.000000 0.000000 -13.191561 -2.185893 -10.631258 3.566906 6.423359 12.925711 
3.987785 0.115678 -0.256827 2.397500 27.155096 -5.191082 -0.000000 0.000000 -0.000000 -8.646066 0.580440 0.191744 -1.609335 0.512571 -0.517046 0.000000 0.000000 0.000000 -1.995167 -0.300210 -1.492054 3.075094 -3.837152 -2.548672 -1.840420 -0.043141 -1.858527 -37.527651 -1.132722 1.607939 -29.618943 3.010749 12.421021 0.892767 -1.206233 6.629782 -2.609895 0.465301 -0.119749 13.069832 6.822662 1.793087 64.817880 3.427946 -6.447101 0.607060 23.639150 -0.466865 0.000000 0.000000 -0.000000 -13.628624 11.817310 -5.880719 -0.032639 4.587638 22.611692 0.000000 0.000000 0.000000 -13.072563 -2.724480 -10.538062 3.383149 6.336025 12.673024 
4.070267 0.150391 -0.309002 2.173887 26.932255 -5.177422 -0.000000 0.000000 -0.000000 -8.788050 0.724611 0.327342 -1.608444 0.603959 -0.552740 0.000000 0.000000 0.000000 -2.012885 -0.188977 -1.536625 3.041158 -3.874382 -2.501676 -1.833225 0.096617 -1.852137 -37.190703 -1.110373 1.700367 -30.051727 2.659598 12.517616 0.865796 -1.700943 6.563433 -2.621870 0.598744 -0.118656 13.102762 6.816378 1.761899 64.529746 3.961304 -5.999328 0.614594 23.432965 -0.467323 0.000000 0.000000 -0.000000 -13.422188 11.754750 -6.145918 0.125143 4.687643 22.868269 0.000000 0.000000 0.000000 -12.914112 -3.244995 -10.484239 3.197887 6.205445 12.399746 
4.084147 0.183607 -0.365986 2.001517 26.616041 -5.154241 -0.000000 0.000000 -0.000000 -8.844679 0.808732 0.475619 -1.594374 0.677947 -0.597065 0.000000 0.000000 0.000000 -2.006944 -0.117136 -1.578500 3.036189 -3.907397 -2.446109 -1.812495 0.170809 -1.837350 -36.762667 -1.092108 1.820037 -30.567855 2.325195 12.818824 0.870529 -2.309937 6.611475 -2.600187 0.678541 -0.125111 13.187287 6.761481 1.726417 64.136195 4.604466 -5.465512 0.610278 23.559476 -0.471057 0.000000 0.000000 -0.000000 -13.203208 11.729444 -6.315382 0.265387 4.861007 22.962436 0.000000 0.000000 0.000000 -12.737612 -3.709578 -10.474692 3.004970 6.018981 12.117421 
4.038794 0.214534 -0.429250 1.880490 26.221058 -5.118546 -0.000000 0.000000 -0.000000 -8.797148 0.825180 0.625318 -1.563451 0.691657 -0.643439 0.000000 0.000000 0.000000 -1.961710 -0.090536 -1.612860 3.042620 -3.924631 -2.388883 -1.773349 0.193960 -1.814577 -36.279046 -1.055542 1.947312 -31.129878 2.119284 13.271048 0.872321 -2.907238 6.680974 -2.541364 0.700113 -0.135445 13.264062 6.668584 1.692679 63.755716 5.218265 -4.933031 0.602952 24.095648 -0.473607 0.000000 0.000000 -0.000000 -12.981053 11.756063 -6.396609 0.391499 5.093895 22.922454 0.000000 0.000000 0.000000 -12.540400 -4.018991 -10.524494 2.846710 5.860072 11.827987 
